<?xml version="1.0" encoding="UTF-8" standalone="no"?>
<!-- Created with Inkscape (http://www.inkscape.org/) -->
<svg id="svg3136" xmlns:rdf="http://www.w3.org/1999/02/22-rdf-syntax-ns#" xmlns="http://www.w3.org/2000/svg" xmlns:ns0="http://www.iki.fi/pav/software/textext/" height="143.02" width="722" version="1.1" xmlns:cc="http://creativecommons.org/ns#" xmlns:xlink="http://www.w3.org/1999/xlink" xmlns:dc="http://purl.org/dc/elements/1.1/">
 <defs id="defs3138">
  <marker id="Arrow1Mendh" refY="0" refX="0" orient="auto">
   <path id="path4883" d="M0,0,5-5-12.5,0,5,5,0,0z" fill-rule="evenodd" transform="matrix(-0.4,0,0,-0.4,-4,0)" stroke="#F00" stroke-width="1pt" fill="#F00"/>
  </marker>
  <marker id="Arrow1MendhH" refY="0" refX="0" orient="auto">
   <path id="path5064" d="M0,0,5-5-12.5,0,5,5,0,0z" fill-rule="evenodd" transform="matrix(-0.4,0,0,-0.4,-4,0)" stroke="#00F" stroke-width="1pt" fill="#00F"/>
  </marker>
 </defs>
 <metadata id="metadata3141">
  <rdf:RDF>
   <cc:Work rdf:about="">
    <dc:format>image/svg+xml</dc:format>
    <dc:type rdf:resource="http://purl.org/dc/dcmitype/StillImage"/>
    <dc:title/>
   </cc:Work>
  </rdf:RDF>
 </metadata>
 <g id="layer1" transform="translate(-34,-491.375)">
  <path id="path12926-8-2-3" stroke-linejoin="round" style="marker-end:none;" d="m155,602.36,40-30" stroke-dashoffset="0" stroke="#000" stroke-linecap="round" stroke-miterlimit="4" stroke-dasharray="none" stroke-width="1" fill="none"/>
  <path id="path12926-8-2-6-7" stroke-linejoin="round" style="marker-end:none;" d="m260,602.07-45-30" stroke-dashoffset="0" stroke="#000" stroke-linecap="round" stroke-miterlimit="4" stroke-dasharray="none" stroke-width="1" fill="none"/>
  <path id="path12926-8-2-5-1" stroke-linejoin="round" style="marker-end:none;" d="m75,552.07,45-30" stroke-dashoffset="0" stroke="#000" stroke-linecap="round" stroke-miterlimit="4" stroke-dasharray="none" stroke-width="1" fill="none"/>
  <text id="text12067-1-3-7-8-1-8-73-5" style="letter-spacing:0px;word-spacing:0px;" line-height="125%" font-family="Sans" xml:space="preserve" font-size="10px" y="617.07422" x="160" font-weight="normal" font-style="normal" fill="#000000"><tspan id="tspan12069-9-7-4-2-0-6-32-2" style="text-anchor:middle;text-align:center;" font-family="FreeSerif" font-size="18px" font-style="normal" font-stretch="normal" font-variant="normal" y="617.07422" x="160" font-weight="normal">Const(1)</tspan></text>
  <text id="text12067-1-3-7-8-1-8-73-5-6" style="letter-spacing:0px;word-spacing:0px;" line-height="125%" font-family="Sans" xml:space="preserve" font-size="10px" y="617.07422" x="260" font-weight="normal" font-style="normal" fill="#000000"><tspan id="tspan12069-9-7-4-2-0-6-32-2-8" style="text-anchor:middle;text-align:center;" font-family="FreeSerif" font-size="18px" font-style="normal" font-stretch="normal" font-variant="normal" y="617.07422" x="260" font-weight="normal">ID(1)</tspan></text>
  <text id="text12067-1-3-7-8-1-8-73-5-2" style="letter-spacing:0px;word-spacing:0px;" line-height="125%" font-family="Sans" xml:space="preserve" font-size="10px" y="567.07422" x="75" font-weight="normal" font-style="normal" fill="#000000"><tspan id="tspan12069-9-7-4-2-0-6-32-2-1" style="text-anchor:middle;text-align:center;" font-family="FreeSerif" font-size="18px" font-style="normal" font-stretch="normal" font-variant="normal" y="567.07422" x="75" font-weight="normal">Const(1)</tspan></text>
  <text id="text12067-1-3-7-8-1-8-73-5-7-2" style="letter-spacing:0px;word-spacing:0px;" line-height="125%" font-family="Sans" xml:space="preserve" font-size="10px" y="517.36218" x="135" font-weight="normal" font-style="normal" fill="#000000"><tspan id="tspan12069-9-7-4-2-0-6-32-2-5-7" style="text-anchor:middle;text-align:center;" font-family="FreeSerif" font-size="18px" font-style="normal" font-stretch="normal" font-variant="normal" y="517.36218" x="135" font-weight="normal">BinaryOp(3)</tspan></text>
  <text id="text12067-1-3-7-8-1-8-73-5-7-7" style="letter-spacing:0px;word-spacing:0px;" line-height="125%" font-family="Sans" xml:space="preserve" font-size="10px" y="567.07422" x="200.20422" font-weight="normal" font-style="normal" fill="#000000"><tspan id="tspan12069-9-7-4-2-0-6-32-2-5-2" style="text-anchor:middle;text-align:center;" font-family="FreeSerif" font-size="18px" font-style="normal" font-stretch="normal" font-variant="normal" y="567.07422" x="200.20422" font-weight="normal">BinaryOp(2)</tspan></text>
  <path id="path12926-8-2-6-7-0" stroke-linejoin="round" style="marker-end:none;" d="m200,552.36-45-30" stroke-dashoffset="0" stroke="#000" stroke-linecap="round" stroke-miterlimit="4" stroke-dasharray="none" stroke-width="1" fill="none"/>
  <rect id="rect3221" ry="9" height="90" width="220" stroke="#F00" stroke-dasharray="none" stroke-miterlimit="4" y="492.36" x="35" stroke-width="2" fill="none"/>
  <rect id="rect3221-0" ry="9" height="90" width="175" stroke="#00F" stroke-dasharray="none" stroke-miterlimit="4" y="542.36" x="115" stroke-width="2" fill="none"/>
  <path id="path4430" stroke-linejoin="round" style="marker-end:url(#Arrow1Mendh);" d="m255,512.36s45-20,70-15,50,15,50,15" stroke-dashoffset="0" stroke="#F00" stroke-linecap="round" stroke-miterlimit="4" stroke-dasharray="none" stroke-width="2" fill="none"/>
  <path id="path4430-3" stroke-linejoin="round" style="marker-end:url(#Arrow1MendhH);" d="m290,622.36s80,15,160,10,150-20,150-20" stroke-dashoffset="0" stroke="#00F" stroke-linecap="round" stroke-miterlimit="4" stroke-dasharray="none" stroke-width="2" fill="none"/>
  <g id="g5282" ns0:preamble="" transform="matrix(1.8,0,0,1.8,44.607042,267.78209)" ns0:text="$t^{(1)}$">
   <defs id="defs5284">
    <g id="g5286">
     <symbol id="textext-ddf1bd02-1" overflow="visible">
      <path id="path5292" d="m2.0469-3.9844,0.9375,0c0.20312,0,0.3125,0,0.3125-0.20312,0-0.10938-0.10938-0.10938-0.28125-0.10938h-0.875c0.3594-1.4219,0.4063-1.6093,0.4063-1.6719,0-0.17188-0.125-0.26562-0.29688-0.26562-0.03125,0-0.3125,0-0.39062,0.35938l-0.39062,1.5781h-0.9375c-0.20312,0-0.29688,0-0.29688,0.1875,0,0.125,0.078125,0.125,0.28125,0.125h0.875c-0.71882,2.8282-0.7657,3-0.7657,3.1719,0,0.54688,0.375,0.92188,0.9219,0.92188,1.0156,0,1.5781-1.4532,1.5781-1.5313,0-0.1093-0.0781-0.1093-0.1094-0.1093-0.0937,0-0.1094,0.0312-0.1562,0.1406-0.4219,1.0468-0.9532,1.2812-1.2969,1.2812-0.20312,0-0.3125-0.125-0.3125-0.45312,0-0.25,0.03125-0.3125,0.0625-0.48438z"/>
     </symbol>
     <symbol id="textext-ddf1bd02-3" overflow="visible">
      <path id="path5298" d="M2.4688-5.2188c-1.3126,0.9219-1.6719,2.4063-1.6719,3.4688,0,0.98438,0.29688,2.5156,1.6719,3.4844,0.0625,0,0.14062,0,0.14062-0.078125,0-0.046875-0.015625-0.0625-0.0625-0.10938-0.9375-0.84378-1.2657-2.0156-1.2657-3.2813,0-1.8906,0.7188-2.8125,1.2813-3.3281,0.0313-0.0313,0.0469-0.0469,0.0469-0.0781,0-0.0782-0.0782-0.0782-0.1406-0.0782z"/>
     </symbol>
     <symbol id="textext-ddf1bd02-4" overflow="visible">
      <path id="path5301" d="m2.3281-4.4375c0-0.1875,0-0.1875-0.20312-0.1875-0.45312,0.4375-1.0781,0.4375-1.3594,0.4375v0.25c0.15625,0,0.625,0,1-0.1875v3.5469c0,0.23438,0,0.32812-0.6875,0.32812h-0.26562v0.25c0.125,0,0.98438-0.03125,1.2344-0.03125,0.21875,0,1.0938,0.03125,1.25,0.03125v-0.25h-0.26562c-0.70312,0-0.70312-0.09375-0.70312-0.32812z"/>
     </symbol>
     <symbol id="textext-ddf1bd02-5" overflow="visible">
      <path id="path5304" d="m0.625-5.2188c-0.046875,0-0.125,0-0.125,0.078125,0,0.03125,0.015625,0.046875,0.0625,0.10938,0.59375,0.54688,1.2656,1.4844,1.2656,3.2812,0,1.4531-0.45312,2.5625-1.2031,3.2344-0.125,0.125-0.125,0.125-0.125,0.17188,0,0.03125,0.015625,0.078125,0.078125,0.078125,0.09375,0,0.75-0.45312,1.2188-1.3281,0.29688-0.57812,0.5-1.3281,0.5-2.1406,0-0.9844-0.2969-2.5156-1.6719-3.4844z"/>
     </symbol>
    </g>
   </defs>
   <g id="textext-ddf1bd02-6" fill="#000">
    <g id="g5307">
     <use id="use5309" xlink:href="#textext-ddf1bd02-1" height="1052.3622" width="744.09448" y="134.765" x="223.43201"/>
    </g>
    <g id="g5311">
     <use id="use5313" xlink:href="#textext-ddf1bd02-3" height="1052.3622" width="744.09448" y="131.14999" x="227.03"/>
     <use id="use5315" xlink:href="#textext-ddf1bd02-4" height="1052.3622" width="744.09448" y="131.14999" x="230.1431"/>
     <use id="use5317" xlink:href="#textext-ddf1bd02-5" height="1052.3622" width="744.09448" y="131.14999" x="234.11469"/>
    </g>
   </g>
  </g>
  <g id="g5477" ns0:preamble="" transform="matrix(1.8,0,0,1.8,258.0077,269.39884)" ns0:text="$t^{(2)}$">
   <defs id="defs5479">
    <g id="g5481">
     <symbol id="textext-1268d78c-1" overflow="visible">
      <path id="path5487" d="m2.0469-3.9844,0.9375,0c0.20312,0,0.3125,0,0.3125-0.20312,0-0.10938-0.10938-0.10938-0.28125-0.10938h-0.875c0.3594-1.4219,0.4063-1.6093,0.4063-1.6719,0-0.17188-0.125-0.26562-0.29688-0.26562-0.03125,0-0.3125,0-0.39062,0.35938l-0.39062,1.5781h-0.9375c-0.20312,0-0.29688,0-0.29688,0.1875,0,0.125,0.078125,0.125,0.28125,0.125h0.875c-0.71882,2.8282-0.7657,3-0.7657,3.1719,0,0.54688,0.375,0.92188,0.9219,0.92188,1.0156,0,1.5781-1.4532,1.5781-1.5313,0-0.1093-0.0781-0.1093-0.1094-0.1093-0.0937,0-0.1094,0.0312-0.1562,0.1406-0.4219,1.0468-0.9532,1.2812-1.2969,1.2812-0.20312,0-0.3125-0.125-0.3125-0.45312,0-0.25,0.03125-0.3125,0.0625-0.48438z"/>
     </symbol>
     <symbol id="textext-1268d78c-3" overflow="visible">
      <path id="path5493" d="M2.4688-5.2188c-1.3126,0.9219-1.6719,2.4063-1.6719,3.4688,0,0.98438,0.29688,2.5156,1.6719,3.4844,0.0625,0,0.14062,0,0.14062-0.078125,0-0.046875-0.015625-0.0625-0.0625-0.10938-0.9375-0.84378-1.2657-2.0156-1.2657-3.2813,0-1.8906,0.7188-2.8125,1.2813-3.3281,0.0313-0.0313,0.0469-0.0469,0.0469-0.0781,0-0.0782-0.0782-0.0782-0.1406-0.0782z"/>
     </symbol>
     <symbol id="textext-1268d78c-4" overflow="visible">
      <path id="path5496" d="m3.5156-1.2656-0.23438,0c-0.015625,0.15625-0.09375,0.5625-0.1875,0.625-0.046875,0.046875-0.57812,0.046875-0.6875,0.046875h-1.2812c0.73438-0.64062,0.98438-0.84375,1.3906-1.1719,0.51562-0.40625,1-0.84375,1-1.5,0-0.84375-0.73438-1.3594-1.625-1.3594-0.85938,0-1.4531,0.60938-1.4531,1.25,0,0.34375,0.29688,0.39062,0.375,0.39062,0.15625,0,0.35938-0.125,0.35938-0.375,0-0.125-0.046875-0.375-0.40625-0.375,0.21873-0.4844,0.68745-0.6406,1.0156-0.6406,0.70312,0,1.0625,0.54688,1.0625,1.1094,0,0.60938-0.4375,1.0781-0.65625,1.3281l-1.6718,1.6719c-0.07812,0.0625-0.07812,0.07812-0.07812,0.26562h2.875z"/>
     </symbol>
     <symbol id="textext-1268d78c-5" overflow="visible">
      <path id="path5499" d="m0.625-5.2188c-0.046875,0-0.125,0-0.125,0.078125,0,0.03125,0.015625,0.046875,0.0625,0.10938,0.59375,0.54688,1.2656,1.4844,1.2656,3.2812,0,1.4531-0.45312,2.5625-1.2031,3.2344-0.125,0.125-0.125,0.125-0.125,0.17188,0,0.03125,0.015625,0.078125,0.078125,0.078125,0.09375,0,0.75-0.45312,1.2188-1.3281,0.29688-0.57812,0.5-1.3281,0.5-2.1406,0-0.9844-0.2969-2.5156-1.6719-3.4844z"/>
     </symbol>
    </g>
   </defs>
   <g id="textext-1268d78c-6" fill="#000">
    <g id="g5502">
     <use id="use5504" xlink:href="#textext-1268d78c-1" height="1052.3622" width="744.09448" y="134.765" x="223.43201"/>
    </g>
    <g id="g5506">
     <use id="use5508" xlink:href="#textext-1268d78c-3" height="1052.3622" width="744.09448" y="131.14999" x="227.03"/>
     <use id="use5510" xlink:href="#textext-1268d78c-4" height="1052.3622" width="744.09448" y="131.14999" x="230.1431"/>
     <use id="use5512" xlink:href="#textext-1268d78c-5" height="1052.3622" width="744.09448" y="131.14999" x="234.11469"/>
    </g>
   </g>
  </g>
  <path id="path12926-8-2-5-1-1" stroke-linejoin="round" style="marker-end:none;" d="m390,577.07,45-30" stroke-dashoffset="0" stroke="#000" stroke-linecap="round" stroke-miterlimit="4" stroke-dasharray="none" stroke-width="1" fill="none"/>
  <text id="text12067-1-3-7-8-1-8-73-5-2-5" style="letter-spacing:0px;word-spacing:0px;" line-height="125%" font-family="Sans" xml:space="preserve" font-size="10px" y="592.07422" x="390" font-weight="normal" font-style="normal" fill="#000000"><tspan id="tspan12069-9-7-4-2-0-6-32-2-1-5" style="text-anchor:middle;text-align:center;" font-family="FreeSerif" font-size="18px" font-style="normal" font-stretch="normal" font-variant="normal" y="592.07422" x="390" font-weight="normal">Const(1)</tspan></text>
  <text id="text12067-1-3-7-8-1-8-73-5-7-2-8" style="letter-spacing:0px;word-spacing:0px;" line-height="125%" font-family="Sans" xml:space="preserve" font-size="10px" y="542.36218" x="450" font-weight="normal" font-style="normal" fill="#000000"><tspan id="tspan12069-9-7-4-2-0-6-32-2-5-7-3" style="text-anchor:middle;text-align:center;" font-family="FreeSerif" font-size="18px" font-style="normal" font-stretch="normal" font-variant="normal" y="542.36218" x="450" font-weight="normal">BinaryOp(3)</tspan></text>
  <text id="text12067-1-3-7-8-1-8-73-5-7-7-9" style="letter-spacing:0px;word-spacing:0px;" line-height="125%" font-family="Sans" xml:space="preserve" font-size="10px" y="592.07422" x="515.20422" font-weight="normal" font-style="normal" fill="#000000"><tspan id="tspan12069-9-7-4-2-0-6-32-2-5-2-9" style="text-anchor:middle;text-align:center;" font-family="FreeSerif" font-size="18px" font-style="normal" font-stretch="normal" font-variant="normal" y="592.07422" x="515.20422" font-weight="normal">BinaryOp(2)</tspan></text>
  <path id="path12926-8-2-6-7-0-7" stroke-linejoin="round" style="marker-end:none;" d="m515,577.36-45-30" stroke-dashoffset="0" stroke="#000" stroke-linecap="round" stroke-miterlimit="4" stroke-dasharray="none" stroke-width="1" fill="none"/>
  <rect id="rect3221-8" ry="9" height="90" width="220" stroke="#F00" stroke-dasharray="none" stroke-miterlimit="4" y="517.36" x="350" stroke-width="2" fill="none"/>
  <path id="path12926-8-2-3-9" stroke-linejoin="round" style="marker-end:none;" d="m620,577.65,40-30" stroke-dashoffset="0" stroke="#000" stroke-linecap="round" stroke-miterlimit="4" stroke-dasharray="none" stroke-width="1" fill="none"/>
  <path id="path12926-8-2-6-7-9" stroke-linejoin="round" style="marker-end:none;" d="m725,577.36-45-30" stroke-dashoffset="0" stroke="#000" stroke-linecap="round" stroke-miterlimit="4" stroke-dasharray="none" stroke-width="1" fill="none"/>
  <text id="text12067-1-3-7-8-1-8-73-5-7" style="letter-spacing:0px;word-spacing:0px;" line-height="125%" font-family="Sans" xml:space="preserve" font-size="10px" y="592.36438" x="625" font-weight="normal" font-style="normal" fill="#000000"><tspan id="tspan12069-9-7-4-2-0-6-32-2-9" style="text-anchor:middle;text-align:center;" font-family="FreeSerif" font-size="18px" font-style="normal" font-stretch="normal" font-variant="normal" y="592.36438" x="625" font-weight="normal">Const(1)</tspan></text>
  <text id="text12067-1-3-7-8-1-8-73-5-6-2" style="letter-spacing:0px;word-spacing:0px;" line-height="125%" font-family="Sans" xml:space="preserve" font-size="10px" y="592.36438" x="725" font-weight="normal" font-style="normal" fill="#000000"><tspan id="tspan12069-9-7-4-2-0-6-32-2-8-6" style="text-anchor:middle;text-align:center;" font-family="FreeSerif" font-size="18px" font-style="normal" font-stretch="normal" font-variant="normal" y="592.36438" x="725" font-weight="normal">ID(1)</tspan></text>
  <text id="text12067-1-3-7-8-1-8-73-5-7-7-1" style="letter-spacing:0px;word-spacing:0px;" line-height="125%" font-family="Sans" xml:space="preserve" font-size="10px" y="542.36438" x="665.20422" font-weight="normal" font-style="normal" fill="#000000"><tspan id="tspan12069-9-7-4-2-0-6-32-2-5-2-5" style="text-anchor:middle;text-align:center;" font-family="FreeSerif" font-size="18px" font-style="normal" font-stretch="normal" font-variant="normal" y="542.36438" x="665.20422" font-weight="normal">BinaryOp(2)</tspan></text>
  <rect id="rect3221-0-8" ry="9" height="90" width="175" stroke="#00F" stroke-dasharray="none" stroke-miterlimit="4" y="517.65" x="580" stroke-width="2" fill="none"/>
 </g>
</svg>
